<svg xmlns="http://www.w3.org/2000/svg" viewBox="0 0 32 32" fill="none">
  <circle cx="16" cy="16" r="16" fill="#25D366"/>
  <path d="M9 23l1.1-4.2A7.9 7.9 0 018.2 14C8.2 9.7 11.7 6.2 16 6.2S23.8 9.7 23.8 14 20.3 21.8 16 21.8c-1.7 0-3.4-.5-4.8-1.6L9 23z" fill="#fff"/>
  <path d="M13.1 11.8c-.2-.4-.5-.4-.7-.4h-.6c-.2 0-.5.1-.7.4-.2.2-.8.8-.8 2s.8 2.4.9 2.6c.1.2 1.6 2.7 4 3.7 1.9.8 2.3.7 2.7.7.4 0 1.4-.5 1.6-1 .2-.6.2-1 .1-1.1-.1-.1-.3-.2-.7-.4l-1.2-.6c-.3-.1-.5-.2-.7.2-.2.3-.8 1-.9 1.1-.2.2-.3.2-.6.1-.3-.1-1.3-.5-2.4-1.5-.9-.8-1.5-1.8-1.7-2.1-.2-.3 0-.4.1-.6l.5-.6.4-.6c.1-.2.1-.4 0-.6l-.9-2.3z" fill="#25D366"/>
</svg>
