<svg xmlns="http://www.w3.org/2000/svg" viewBox="0 0 24 24" fill="none">
  <path fill="#fff" d="M12.05 2.3A9.77 9.77 0 0 0 2.3 12.05c0 1.73.45 3.42 1.31 4.91L2.2 21.7l4.85-1.37a9.77 9.77 0 0 0 5 .9c5.39 0 9.76-4.37 9.76-9.77A9.77 9.77 0 0 0 12.05 2.3Zm0 17.82c-1.56 0-3.1-.42-4.44-1.21l-.32-.19-2.88.82.83-2.8-.2-.32a8.63 8.63 0 1 1 7.01 3.7Zm4.74-6.46c-.26-.13-1.54-.76-1.78-.85-.24-.09-.42-.13-.59.13-.18.27-.68.85-.84 1.02-.15.18-.3.2-.56.07-.26-.13-1.09-.4-2.08-1.28-.76-.68-1.28-1.52-1.43-1.78-.15-.27-.02-.41.11-.54.11-.11.26-.29.39-.44.13-.15.18-.27.26-.44.09-.18.04-.33-.02-.46-.06-.13-.59-1.42-.81-1.95-.21-.5-.43-.43-.59-.44h-.5a.96.96 0 0 0-.7.33c-.24.27-.92.9-.92 2.19 0 1.29.95 2.54 1.08 2.72.13.18 1.85 2.82 4.48 3.95.63.27 1.12.43 1.5.55.63.2 1.2.17 1.65.1.5-.07 1.54-.63 1.76-1.23.22-.6.22-1.12.15-1.23-.06-.11-.24-.18-.5-.31Z"/>
</svg>
